HIERARCHY
ROOT Hips
{
	OFFSET 0.00000 0.00000 0.00000
	CHANNELS 6 Xposition Yposition Zposition Zrotation Yrotation Xrotation 
	JOINT LHipJoint
	{
		OFFSET 0 0 0
		CHANNELS 3 Zrotation Yrotation Xrotation
		JOINT LeftHip
		{
			OFFSET 1.56741 -1.82513 0.67319
			CHANNELS 3 Zrotation Yrotation Xrotation
			JOINT LeftKnee
			{
				OFFSET 2.35708 -6.47604 0.00000
				CHANNELS 3 Zrotation Yrotation Xrotation
				JOINT LeftAnkle
				{
					OFFSET 2.70636 -7.43567 0.00000
					CHANNELS 3 Zrotation Yrotation Xrotation
					JOINT LeftToe
					{
						OFFSET 0.20427 -0.56122 2.08535
						CHANNELS 3 Zrotation Yrotation Xrotation
						End Site
						{
							OFFSET 0.00000 -0.00000 1.08535
						}
					}
				}
			}
		}
	}
	JOINT RHipJoint
	{
		OFFSET 0 0 0
		CHANNELS 3 Zrotation Yrotation Xrotation
		JOINT RightHip
		{
			OFFSET -1.51422 -1.82513 0.67319
			CHANNELS 3 Zrotation Yrotation Xrotation
			JOINT RightKnee
			{
				OFFSET -2.48824 -6.83638 0.00000
				CHANNELS 3 Zrotation Yrotation Xrotation
				JOINT RightAnkle
				{
					OFFSET -2.70033 -7.41909 0.00000
					CHANNELS 3 Zrotation Yrotation Xrotation
					JOINT RightToe
					{
						OFFSET -0.19750 -0.54263 2.22151
						CHANNELS 3 Zrotation Yrotation Xrotation
						End Site
						{
							OFFSET -0.00000 -0.00000 1.14915
						}
					}
				}
			}
		}
	}
	JOINT lowerback
	{
		OFFSET 0 0 0
		CHANNELS 3 Zrotation Yrotation Xrotation
		JOINT Chest
		{
			OFFSET -0.01567 2.12874 -0.15842
			CHANNELS 3 Zrotation Yrotation Xrotation
			JOINT Chest2
			{
				OFFSET 0.06098 2.13326 -0.01043
				CHANNELS 3 Zrotation Yrotation Xrotation
				JOINT lowerneck
				{
					OFFSET 0 0 0
					CHANNELS 3 Zrotation Yrotation Xrotation
					JOINT Neck
					{
						OFFSET -0.05040 1.78432 0.13387
						CHANNELS 3 Zrotation Yrotation Xrotation
						JOINT Head
						{
							OFFSET -0.00180 1.76880 -0.33303
							CHANNELS 3 Zrotation Yrotation Xrotation
							End Site
							{
								OFFSET 0.00734 1.81249 -0.12719
							}
						}
					}
				}
				JOINT LeftCollar
				{
					OFFSET 0 0 0
					CHANNELS 3 Zrotation Yrotation Xrotation
					JOINT LeftShoulder
					{
						OFFSET 3.72199 0.94188 -0.54317
CHANNELS 3 Zrotation Xrotation Yrotation
						JOINT LeftElbow
						{
OFFSET 0 -5.146010 0.000000
CHANNELS 3 Zrotation Xrotation Yrotation
							JOINT LeftWrist
							{
OFFSET 0 -3.644520 -0.000000
CHANNELS 3 Zrotation Xrotation Yrotation
								JOINT lhand
								{
									OFFSET 0 0 0
CHANNELS 3 Zrotation Xrotation Yrotation
									JOINT LFingers
									{
OFFSET 0 -0.562280 0.000000
CHANNELS 3 Zrotation Xrotation Yrotation
										End Site
										{
OFFSET 0 -0.453320 0.000000
										}
									}
								}
								JOINT LThumb
								{
OFFSET 0 0.000000 0.000000
CHANNELS 3 Zrotation Xrotation Yrotation
									End Site
									{
OFFSET 0 -0.460250 0.460250
									}
								}
							}
						}
					}
				}
				JOINT RightCollar
				{
					OFFSET 0 0 0
					CHANNELS 3 Zrotation Yrotation Xrotation
					JOINT RightShoulder
					{
						OFFSET -3.30253 1.22679 -0.46941
CHANNELS 3 Zrotation Xrotation Yrotation
						JOINT RightElbow
						{
OFFSET 0 -5.339130 0.000000
CHANNELS 3 Zrotation Xrotation Yrotation
							JOINT RightWrist
							{
OFFSET 0 -3.564780 -0.000000
CHANNELS 3 Zrotation Xrotation Yrotation
								JOINT rhand
								{
									OFFSET 0 0 0
CHANNELS 3 Zrotation Xrotation Yrotation
									JOINT RFingers
									{
OFFSET 0 -0.857470 0.000000
CHANNELS 3 Zrotation Xrotation Yrotation
										End Site
										{
OFFSET 0 -0.691320 0.000000
										}
									}
								}
								JOINT RThumb
								{
OFFSET 0 0.000000 0.000000
CHANNELS 3 Zrotation Xrotation Yrotation
									End Site
									{
OFFSET 0 -0.701870 0.701870
									}
								}
							}
						}
					}
				}
			}
		}
	}
}
MOTION
Frames: 4
Frame Time: 0.008333333333333333
1.836133 16.851125 5.794883 2.564157 -0.448976 359.735255 0.000000 0.000000 0.000000 -17.032336 -1.523435 -9.157684 4.212526 12.437913 37.299319 1.495968 -8.229480 -21.889971 1.700703 -8.212526 -23.361525 0.000000 0.000000 0.000000 -2.367300 6.432217 -32.563579 -4.034753 -12.206334 36.466012 0.056026 -5.222097 1.416306 -0.240787 3.157690 -8.718146 -5.572589 -2.212060 17.308900 4.744474 -3.600338 0.379716 9.286475 -1.393584 -8.651261 -4.856258 1.214537 -18.248189 0.782947 3.075961 29.994849 1.635135 0.883209 12.995832 0.000000 0.000000 0.000000 19.272598 7.162807 -29.116194 32.747851 -43.135351 13.249371 -5.830686 -17.432406 -18.699792 0.000000 0.000000 0.000000 -7.125000 0.000000 0.000000 -31.509379 46.041039 0.899320 0.000000 0.000000 0.000000 -21.232238 14.695092 11.087139 -39.678640 -47.878334 -18.200543 14.216049 11.654909 -16.428399 0.000000 0.000000 0.000000 7.125000 0.000000 0.000000 27.021617 14.059860 22.341509
1.990325 17.173389 5.027186 0.385208 0.027851 359.479351 0.000000 0.000000 0.000000 -15.298575 -2.832577 -10.690514 3.866285 11.980167 35.662014 0.953083 -7.614943 -17.460986 1.569714 -7.905348 -22.427090 0.000000 0.000000 0.000000 -1.254242 5.572104 -29.596879 -4.802572 -13.156861 39.960285 -0.020663 -2.301068 -4.495658 -0.063983 1.619990 -4.456834 -3.800435 -1.126460 17.234289 3.874470 -1.880477 0.561659 6.864038 -0.653390 -8.825337 -5.083104 1.190124 -18.200390 0.781026 3.154266 30.223092 1.691019 0.893395 13.075910 0.000000 0.000000 0.000000 22.057046 8.955213 -25.771916 32.262536 -42.755396 12.918770 -7.019845 -18.396805 -19.109853 0.000000 0.000000 0.000000 -7.125000 0.000000 0.000000 -32.725132 46.237695 1.120030 0.000000 0.000000 0.000000 -23.432205 12.713149 11.918691 -40.357958 -48.280535 -18.705994 11.470372 11.206194 -16.382439 0.000000 0.000000 0.000000 7.125000 0.000000 0.000000 25.434530 14.200295 20.599717
1.938393 17.441639 4.296049 -0.989867 1.409858 358.880432 0.000000 0.000000 0.000000 -13.629315 -3.855994 -10.387271 2.980476 10.663196 31.152538 0.493592 -7.685543 -12.824527 1.252671 -7.095665 -19.998946 0.000000 0.000000 0.000000 0.223246 1.399257 -26.553224 -7.471495 -15.715755 50.634710 -0.050269 -1.268055 -4.909341 -0.001637 0.108544 -0.298245 -2.199779 0.278627 16.768136 2.809945 0.202895 0.844941 4.243670 0.245829 -8.534111 -5.627812 1.109807 -18.763311 0.352229 3.498659 31.295382 1.704050 0.896354 13.648457 0.000000 0.000000 0.000000 24.405250 9.749936 -24.573065 32.049960 -42.586812 12.774688 -2.393177 -16.208990 -12.082385 0.000000 0.000000 0.000000 -7.125000 0.000000 0.000000 -25.769563 40.580507 -3.033018 0.000000 0.000000 0.000000 -27.601517 10.413115 13.499710 -41.492293 -48.929349 -19.557053 10.715549 9.182057 -15.930281 0.000000 0.000000 0.000000 7.125000 0.000000 0.000000 25.053167 14.635370 19.953142
1.682742 17.557345 3.547966 -1.006862 2.740817 359.043282 0.000000 0.000000 0.000000 -12.730150 -6.036109 -11.179620 2.329682 9.521371 27.440185 0.225075 -7.145938 -9.160741 1.232460 -7.040178 -19.834453 0.000000 0.000000 0.000000 1.307776 -2.488517 -21.764092 -9.462488 -17.096286 57.676335 -0.011862 2.306302 -2.362113 -0.051052 1.456403 -4.005511 -2.024871 1.769086 15.901802 1.470451 2.104383 0.745943 2.247756 1.123614 -8.263409 -5.439078 1.316246 -18.121224 -0.493707 4.060029 31.779002 1.431008 1.049660 13.735265 0.000000 0.000000 0.000000 25.146325 11.238912 -22.457276 32.577867 -43.002977 13.133240 -4.929058 -16.955669 -13.177994 0.000000 0.000000 0.000000 -7.125000 0.000000 0.000000 -28.246315 41.315666 -2.822410 0.000000 0.000000 0.000000 -30.435124 7.180175 15.437723 -41.135587 -48.728466 -19.288468 8.530813 8.885248 -16.748741 0.000000 0.000000 0.000000 7.125000 0.000000 0.000000 23.631802 13.913617 18.978858
